<svg width="40" height="40" viewBox="0 0 40 40" fill="none" xmlns="http://www.w3.org/2000/svg">
<path d="M20.0003 0C8.97206 0 0 8.97193 0 20C0 31.0281 8.97206 40 20.0003 40C31.0283 40 40.0003 31.0281 40.0003 20C40.0003 8.97193 31.0283 0 20.0003 0ZM20.0003 36.7213C10.7799 36.7213 3.27869 29.2203 3.27869 20C3.27869 10.7798 10.7799 3.27869 20.0003 3.27869C29.2205 3.27869 36.7216 10.7798 36.7216 20C36.7216 29.2203 29.2205 36.7213 20.0003 36.7213Z" fill="#F79C04"/>
<path d="M28.6534 12.3231L16.7786 24.1981L11.3493 18.7689C10.709 18.1287 9.67114 18.1287 9.03088 18.7689C8.39075 19.4091 8.39075 20.447 9.03088 21.0873L15.6193 27.6758C15.9395 27.9958 16.359 28.1559 16.7786 28.1559C17.1981 28.1559 17.6176 27.9958 17.9378 27.6758L30.9719 14.6417C31.612 14.0014 31.612 12.9635 30.9719 12.3232C30.3316 11.683 29.2936 11.683 28.6534 12.3231Z" fill="#F79C04"/>
</svg>
