<svg width="36" height="37" viewBox="0 0 36 37" fill="none" xmlns="http://www.w3.org/2000/svg">
<path d="M24.388 11.0608C23.9999 11.0608 23.6848 11.3794 23.6848 11.7735C23.6848 12.1672 23.9999 12.4864 24.388 12.4864C24.7769 12.4864 25.0911 12.1672 25.0911 11.7735C25.0911 11.3794 24.7769 11.0608 24.388 11.0608Z" fill="#F79C04"/>
<path d="M11.6121 24.0138C11.2232 24.0138 10.9089 24.3332 10.9089 24.7267C10.9089 25.1211 11.2232 25.4396 11.6121 25.4396C12.0002 25.4396 12.3152 25.1211 12.3152 24.7267C12.3152 24.3332 12.0002 24.0138 11.6121 24.0138Z" fill="#F79C04"/>
<path d="M35.1263 4.38587C34.889 4.3299 34.6396 4.40258 34.4682 4.57803L31.5531 7.55694H30.1556L28.6172 5.94091V4.50423L31.4905 1.54759C31.6605 1.3727 31.7298 1.12123 31.6735 0.882019C31.6174 0.643081 31.4438 0.450372 31.2142 0.371841C30.4924 0.125106 29.7371 6.76353e-05 28.9688 6.76353e-05C26.6786 6.76353e-05 24.598 1.0828 23.2604 2.97063C22.0085 4.73787 21.6226 6.90363 22.1755 8.97636L16.9961 14.2277L8.36717 5.45886V3.73785C8.36717 3.48749 8.23753 3.25524 8.02576 3.12658L3.05402 0.101713C2.77715 -0.0667679 2.42311 -0.0224894 2.19514 0.208929L0.206549 2.22486C-0.021424 2.45627 -0.065096 2.81524 0.100803 3.09595L3.08368 8.13674C3.21058 8.35145 3.43937 8.48262 3.6863 8.48289L5.38319 8.48345L14.0129 17.2523L8.85333 22.4836C6.80898 21.9232 4.6718 22.3151 2.92795 23.5852C1.06708 24.9406 0 27.0495 0 29.3715C0 30.1502 0.123325 30.9163 0.36668 31.6478C0.444411 31.882 0.636402 32.0589 0.873714 32.1146C1.1113 32.1705 1.36042 32.0979 1.53209 31.9224L4.44685 28.9438H5.85205L7.45308 30.567V31.9917L4.51524 34.947C4.3422 35.121 4.27052 35.3736 4.32572 35.6145C4.38066 35.8551 4.55507 36.0498 4.78607 36.1286C5.50761 36.3753 6.26322 36.5004 7.03119 36.5004C9.32136 36.5004 11.4011 35.4182 12.7382 33.5315C13.991 31.7634 14.3774 29.5968 13.8248 27.5241L17.9687 23.3226L18.9179 24.368L18.4823 24.8094C18.2076 25.0879 18.2076 25.5393 18.4823 25.8178C18.757 26.096 19.2019 26.096 19.4769 25.8178L19.8713 25.4179L28.7776 35.2266C28.7842 35.2338 28.7911 35.2408 28.798 35.2478C30.446 36.9186 33.116 36.9192 34.7648 35.2475C36.409 33.5797 36.409 30.8658 34.7648 29.198C34.7577 29.1908 34.7503 29.1838 34.7429 29.1769L25.0534 20.1641L25.4435 19.7686C25.7181 19.4904 25.7181 19.039 25.4435 18.7605C25.1688 18.4821 24.7238 18.4821 24.4489 18.7605L24.0163 19.1994L22.9833 18.2381L27.1472 14.0163C27.7391 14.1767 28.35 14.258 28.9688 14.258C32.846 14.258 36 11.06 36 7.1292C36 6.35028 35.8767 5.58446 35.6333 4.85261C35.5556 4.61841 35.3636 4.44157 35.1263 4.38587ZM6.17258 7.26704C6.04074 7.13309 5.86193 7.06487 5.67516 7.06487L4.08484 7.06431L1.58922 2.83974L2.80132 1.6108L6.96088 4.14165V5.75405C6.96088 5.94286 7.03476 6.12388 7.16633 6.25755L16.0018 15.2361L15.0072 16.2442L6.17258 7.26704ZM24.058 21.1733L33.7804 30.2164C34.8665 31.3292 34.8632 33.131 33.7703 34.2397C32.6749 35.3502 30.9016 35.3536 29.8019 34.2494L20.8664 24.4087L24.058 21.1733ZM23.0209 20.2084L19.9131 23.3588L18.9638 22.3134L21.9879 19.247L23.0209 20.2084ZM28.9688 12.8322C28.3538 12.8322 27.749 12.7322 27.1717 12.5351C26.9187 12.449 26.6391 12.5153 26.4501 12.7066C22.925 16.2807 15.3294 23.9815 12.5325 26.8176C12.3435 27.0092 12.2779 27.2927 12.3633 27.5494C12.9478 29.3091 12.6682 31.1861 11.5959 32.6996C10.5266 34.2087 8.86267 35.0745 7.03119 35.0745C6.82546 35.0745 6.62084 35.0631 6.41813 35.0411L8.65145 32.7943C8.78439 32.6607 8.85937 32.4785 8.85937 32.2883V30.2716C8.85937 30.0825 8.78521 29.9012 8.65337 29.7675L6.64034 27.7265C6.5085 27.5929 6.32969 27.5177 6.14319 27.5177H4.15406C3.96646 27.5177 3.78683 27.5937 3.65471 27.7285L1.43898 29.9928C1.417 29.7873 1.40602 29.5798 1.40602 29.3712C1.40602 27.514 2.25968 25.8273 3.74837 24.7432C5.24091 23.656 7.09244 23.3722 8.82833 23.9651C9.0813 24.0517 9.36091 23.9851 9.54988 23.7935C9.58861 23.7545 23.4576 9.69262 23.4675 9.68259C23.6565 9.491 23.7219 9.20778 23.6367 8.95102C23.0519 7.1913 23.331 5.31489 24.4025 3.80245C25.4726 2.29197 27.1368 1.42589 28.9685 1.42589C29.1806 1.42589 29.3912 1.43787 29.6 1.46126L27.4131 3.71167C27.2835 3.84506 27.2109 4.02468 27.2109 4.21182V6.22859C27.2109 6.4135 27.2815 6.59089 27.4082 6.72373L29.3509 8.76472C29.4833 8.90396 29.6659 8.98249 29.8568 8.98249H31.8459C32.0333 8.98249 32.2129 8.90674 32.345 8.77168L34.5607 6.50762C34.5827 6.71314 34.5937 6.92061 34.5937 7.1292C34.5937 10.2738 32.0703 12.8322 28.9688 12.8322Z" fill="#F79C04"/>
<path d="M21.9022 13.2856L13.1033 22.2067C12.8289 22.4849 12.8289 22.9363 13.1033 23.2148C13.3779 23.4933 13.8232 23.4933 14.0978 23.2148L22.8968 14.2937C23.1714 14.0155 23.1714 13.564 22.8968 13.2856C22.6221 13.0071 22.1769 13.0071 21.9022 13.2856Z" fill="#F79C04"/>
<path d="M30.7875 32.2237C31.0622 32.5014 31.5074 32.5014 31.7821 32.2221C32.0562 31.9433 32.0554 31.4919 31.7805 31.214L25.4425 24.8086C25.1676 24.5307 24.7221 24.5315 24.4482 24.8103C24.1738 25.0893 24.1747 25.5405 24.4496 25.8184L30.7875 32.2237Z" fill="#F79C04"/>
</svg>
