<svg width="37" height="44" viewBox="0 0 37 44" fill="none" xmlns="http://www.w3.org/2000/svg">
<path d="M22.6947 15.3013C23.1577 15.3013 23.5336 14.9205 23.5336 14.4513C23.5336 13.9821 23.1577 13.6012 22.6947 13.6012C22.2307 13.6012 21.8559 13.9821 21.8559 14.4513C21.8559 14.9205 22.2307 15.3013 22.6947 15.3013Z" fill="#F79C04"/>
<path d="M14.3064 15.3013C14.7694 15.3013 15.1452 14.9205 15.1452 14.4513C15.1452 13.9821 14.7694 13.6012 14.3064 13.6012C13.8424 13.6012 13.4675 13.9821 13.4675 14.4513C13.4675 14.9205 13.8424 15.3013 14.3064 15.3013Z" fill="#F79C04"/>
<path d="M16.258 21.1443C16.9621 21.4806 17.7167 21.6513 18.5002 21.6513C19.2666 21.6513 20.0065 21.4876 20.6995 21.1649C21.1206 20.9686 21.3047 20.4639 21.1114 20.0372C20.9177 19.6108 20.4197 19.4239 19.9986 19.6201C19.5271 19.8396 19.0228 19.9512 18.5002 19.9512C17.9658 19.9512 17.452 19.8353 16.9733 19.6065C16.5542 19.4063 16.0541 19.5882 15.8569 20.0129C15.6593 20.4376 15.8389 20.944 16.258 21.1443Z" fill="#F79C04"/>
<path d="M37 34.4934C37 29.819 31.7468 26.1531 27.244 25.9794L24.9467 23.8878C27.7447 21.819 29.443 18.4944 29.443 14.9613V9.35082C29.443 4.19492 25.2904 0 20.1863 0H16.831C11.7338 0 7.63337 4.17998 7.63337 9.35082V14.9613C7.63337 18.4885 9.30906 21.8067 12.0707 23.8718L9.756 25.9794C5.26301 26.1527 0 29.8094 0 34.4934V42.6737C0 43.1433 0.375508 43.5238 0.838831 43.5238H36.1612C36.6245 43.5238 37 43.1433 37 42.6737V34.4934ZM16.642 37.9133H20.3535L21.2329 41.8237H15.7369L16.642 37.9133ZM20.4255 36.2132H16.5889L15.9453 34.1813L18.5005 32.8866L21.1104 34.2095L20.4255 36.2132ZM18.5002 30.3324L15.5852 25.6068C16.5319 25.8735 17.5155 26.0119 18.5087 26.0119C19.4923 26.0119 20.4688 25.8761 21.4105 25.6138L18.5002 30.3324ZM19.7007 31.5942L23.7281 25.0636L25.9002 27.0413L23.1363 33.3355L19.7007 31.5942ZM16.831 1.70015H20.1863C24.3654 1.70015 27.7653 5.13199 27.7653 9.35082V10.0535L26.1902 7.75494C26.0477 7.54674 25.8206 7.41391 25.5712 7.39266C25.3216 7.37141 25.0765 7.46405 24.9015 7.64536C23.1963 9.41258 21.2221 10.2009 18.5005 10.2009C15.7792 10.2009 13.8047 9.41258 12.0982 7.64536C11.9225 7.46306 11.6752 7.37074 11.4251 7.39299C11.1748 7.41524 10.9474 7.55006 10.8059 7.76058L9.31103 9.98041V9.35082C9.31103 5.13199 12.6844 1.70015 16.831 1.70015ZM9.31103 14.9613V12.9965L11.6408 9.53677C13.5072 11.1456 15.7127 11.901 18.5005 11.901C21.2912 11.901 23.4984 11.1439 25.3651 9.53179L27.7653 13.0344V14.9613C27.7653 20.0521 23.6593 24.3121 18.5087 24.3121C13.3748 24.3121 9.31103 20.0654 9.31103 14.9613ZM13.2719 25.0639L17.2999 31.5942L13.8637 33.3355L11.0998 27.0413L13.2719 25.0639ZM1.67766 34.4934C1.67766 30.9915 5.87837 27.9678 9.54924 27.6928L12.6877 34.8391C12.7807 35.051 12.9554 35.2153 13.171 35.2937C13.3866 35.3721 13.6241 35.3575 13.8292 35.2539L14.4269 34.9507L15.1075 37.0984L14.0137 41.8237H1.67766V34.4934ZM35.3223 41.8237H22.9535L21.8938 37.1114L22.6235 34.9763L23.1707 35.2539C23.3772 35.3585 23.6154 35.3714 23.829 35.2937C24.0446 35.2153 24.2193 35.051 24.3123 34.8391L27.4508 27.6928C31.1216 27.9681 35.3223 30.9915 35.3223 34.4934V41.8237Z" fill="#F79C04"/>
<path d="M29.4052 37.9133H26.0499C25.5866 37.9133 25.2111 38.2939 25.2111 38.7634C25.2111 39.2329 25.5866 39.6135 26.0499 39.6135H29.4052C29.8686 39.6135 30.2441 39.2329 30.2441 38.7634C30.2441 38.2939 29.8686 37.9133 29.4052 37.9133Z" fill="#F79C04"/>
<path d="M32.7143 37.9133C33.1773 37.9133 33.5532 38.2942 33.5532 38.7634C33.5532 39.2326 33.1773 39.6135 32.7143 39.6135C32.2513 39.6135 31.8755 39.2326 31.8755 38.7634C31.8755 38.2942 32.2513 37.9133 32.7143 37.9133Z" fill="#F79C04"/>
</svg>
