<svg width="39" height="42" viewBox="0 0 39 42" fill="none" xmlns="http://www.w3.org/2000/svg">
<path d="M37.5315 16.4636L34.0678 16.1298C33.7002 14.6551 33.1068 13.246 32.3091 11.9522L34.5169 9.28681C34.7338 9.02528 34.7158 8.642 34.4758 8.402L30.7293 4.65522C30.4893 4.41522 30.1061 4.39755 29.8445 4.61409L27.1773 6.82258C25.8812 6.03062 24.4737 5.43754 23.0016 5.06324L22.6674 1.59469C22.635 1.25735 22.3513 1 22.0123 1H16.8921C16.5531 1 16.2698 1.25735 16.2373 1.59469L15.9029 5.06324C14.4307 5.43722 13.0232 6.03062 11.7272 6.82258L9.05988 4.61345C8.79868 4.39691 8.41539 4.41458 8.17507 4.65457L4.42861 8.40168C4.18862 8.642 4.17062 9.02528 4.38749 9.28681L6.59469 11.9518C5.79631 13.2456 5.20258 14.6551 4.83471 16.1301L1.37291 16.4642C1.0362 16.497 0.780143 16.7807 0.781749 17.119V22.4304C0.779821 22.7684 1.03588 23.0524 1.37259 23.0852L4.83857 23.4193C5.21222 24.8911 5.80498 26.299 6.59662 27.595L4.38717 30.262C4.16066 30.5354 4.19183 30.9392 4.45785 31.1747L7.29958 33.6881C7.43998 33.8125 7.62697 33.8709 7.81363 33.8488C7.99998 33.8263 8.168 33.7254 8.27531 33.5715L12.3594 27.7113C12.5416 27.4498 12.5101 27.0951 12.2846 26.8696C8.36624 22.9512 8.36591 16.5979 12.2846 12.6792C16.2032 8.76055 22.5566 8.76055 26.4753 12.6792C30.3939 16.5979 30.3939 22.9512 26.4753 26.8696C26.2468 27.098 26.2179 27.4582 26.4068 27.72L30.6346 33.5798C30.7432 33.7305 30.9105 33.8282 31.0953 33.8488C31.28 33.8693 31.4648 33.8108 31.6039 33.6878L34.4466 31.1754C34.7126 30.9402 34.7441 30.536 34.5172 30.2623L32.3084 27.595C33.1004 26.299 33.6935 24.8914 34.0675 23.4193L37.5315 23.0852C37.8682 23.0524 38.1243 22.7684 38.1223 22.4304V17.1184C38.1239 16.7804 37.8682 16.4964 37.5315 16.4636ZM36.8064 21.8325L33.4692 22.1544C33.1859 22.1818 32.9526 22.389 32.8919 22.6672C32.5292 24.3125 31.8696 25.8778 30.9459 27.2869C30.7878 27.5285 30.8058 27.845 30.9899 28.067L33.0975 30.6112L31.2768 32.2208L27.7935 27.3926C31.8268 22.9432 31.6977 16.0405 27.4057 11.7485C22.9804 7.32314 15.7795 7.32314 11.3542 11.7485C7.05991 16.0427 6.933 22.9506 10.9725 27.3994L7.61797 32.2128L5.80659 30.6109L7.91387 28.0667C8.09797 27.844 8.11564 27.5279 7.95757 27.2863C7.03356 25.8775 6.37365 24.3122 6.00996 22.6672C5.9502 22.3893 5.71759 22.1821 5.43487 22.1544L2.09772 21.8325V17.7166L5.43487 17.3943C5.71952 17.3667 5.95341 17.1582 6.01285 16.8784C6.3669 15.2328 7.02649 13.6684 7.95692 12.2657C8.11692 12.0238 8.09957 11.7057 7.91451 11.4824L5.78281 8.90866L8.68205 6.0091L11.2558 8.14048C11.4782 8.32489 11.7946 8.34256 12.0359 8.18417C13.4447 7.26017 15.01 6.60025 16.655 6.23688C16.9335 6.1752 17.1404 5.94131 17.1677 5.65761L17.4897 2.31629H21.4148L21.737 5.65761C21.7643 5.94131 21.9712 6.1752 22.2494 6.23688C23.8947 6.60025 25.46 7.26049 26.8688 8.18449C27.1101 8.34288 27.4266 8.32521 27.6489 8.1408L30.2224 6.00942L33.1216 8.90866L30.9902 11.4824C30.8055 11.7057 30.7885 12.0238 30.9485 12.2654C31.8792 13.6681 32.5388 15.2328 32.8932 16.8784C32.9516 17.1579 33.1849 17.3667 33.4689 17.3943L36.8064 17.7163V21.8325Z" fill="#F79C04" stroke="#F79C04" stroke-width="0.3"/>
<path d="M21.7467 31.3537V21.3628C23.4052 20.4051 24.494 18.5869 24.494 16.7132C24.494 14.1529 23.0299 12.2882 20.5776 11.7256C20.3732 11.6787 20.1593 11.7318 20.0005 11.8683C19.8422 12.0052 19.758 12.2092 19.774 12.418L19.9915 15.2103C19.4422 15.4985 18.7867 15.4988 18.237 15.2109L18.4709 12.4032C18.4889 12.1873 18.3996 11.9766 18.2319 11.8394C18.0642 11.7022 17.8399 11.6563 17.6321 11.7167C15.3892 12.3663 13.9919 14.2953 13.9919 16.7515C13.9919 19.0059 15.1749 20.8295 17.1489 21.6198V31.5722C15.7506 32.3975 14.4035 34.0724 14.4247 36.2034C14.4247 38.7428 15.8724 40.6201 18.2929 41.2257C18.4986 41.2771 18.7161 41.2267 18.878 41.0901C19.0399 40.9536 19.1263 40.7476 19.1103 40.5365L18.8937 37.7446C19.4428 37.4564 20.0985 37.4561 20.6482 37.7437L20.4144 40.5516C20.3964 40.7675 20.4857 40.9783 20.6534 41.1155C20.8211 41.2527 21.0454 41.2986 21.2532 41.2382C23.4852 40.5915 24.8853 38.6722 24.9078 36.2221C24.9081 33.9673 23.7097 32.144 21.7467 31.3537ZM21.8171 39.5663L21.9922 37.4622C22.0108 37.2383 21.9141 37.0204 21.7355 36.8842L21.7107 36.8653C20.5522 35.9859 18.9471 35.9965 17.8004 36.891C17.6282 37.0269 17.535 37.2399 17.5521 37.4587L17.7201 39.6231C16.4533 38.9918 15.7449 37.7857 15.7449 36.197C15.7278 34.4659 16.9468 33.1015 18.0902 32.5656C18.3206 32.457 18.4667 32.2244 18.4651 31.9696V21.1536C18.4667 20.8642 18.2782 20.6081 18.0012 20.5236C16.3399 20.0221 15.3102 18.5767 15.3102 16.7508C15.3102 15.2803 15.9643 14.0646 17.0672 13.388L16.8928 15.492C16.8742 15.7163 16.9712 15.9344 17.1505 16.0703L17.1749 16.089C18.3318 16.968 19.9353 16.9587 21.0817 16.0665C21.0874 16.062 21.0939 16.0568 21.0993 16.0523C21.2632 15.9158 21.3506 15.7083 21.3342 15.4956L21.1639 13.308C22.4561 13.9136 23.1787 15.1142 23.1787 16.7135C23.1787 18.2043 22.2036 19.7085 20.8073 20.3716C20.5779 20.4806 20.4317 20.7119 20.4317 20.966V31.8195C20.4317 32.1097 20.6219 32.3654 20.8995 32.4493C22.5612 32.9511 23.5928 34.3965 23.5928 36.2163C23.5787 37.6804 22.9191 38.8919 21.8174 39.5663H21.8171Z" fill="#F79C04" stroke="#F79C04" stroke-width="0.3"/>
</svg>
