<svg width="20" height="20" viewBox="0 0 20 20" fill="none" xmlns="http://www.w3.org/2000/svg">
<g clip-path="url(#clip0)">
<path d="M10.1177 19.6973C15.5755 19.6973 20 15.2879 20 9.84867C20 4.4094 15.5755 0 10.1177 0C4.65982 0 0.235352 4.4094 0.235352 9.84867C0.235352 15.2879 4.65982 19.6973 10.1177 19.6973Z" fill="#6F3FAA"/>
<path d="M14.4048 5.40303C11.9994 4.82404 9.5897 4.14679 7.1229 5.00724C5.52575 5.60412 5.52575 7.32848 5.5923 8.78755C5.5923 9.18546 5.12648 9.71605 5.32609 10.1803C5.72536 11.5067 6.05812 12.8331 7.45562 13.4963C7.65528 13.629 7.45562 13.8942 7.58872 14.0932C7.52217 14.0932 7.38907 14.1595 7.38907 14.2259C7.38907 14.5437 7.53221 15.03 7.43713 15.3435L11.6837 19.5738C16.0493 18.8809 19.4613 15.3393 19.9414 10.9207L14.4048 5.40303Z" fill="#512D84"/>
<path d="M15.3451 6.92198L15.3418 6.90898C15.1938 6.31264 14.7546 5.69194 14.2047 5.21967L13.4612 5.87629C13.9033 6.22735 14.2821 6.71366 14.3897 7.13739C14.6838 8.4803 14.6838 9.84161 14.3897 11.1846C14.2134 11.8786 13.3095 12.7415 12.5914 12.9009C11.6512 13.0791 10.7035 13.1552 9.75683 13.1291C9.73799 13.1286 9.71989 13.1359 9.7068 13.1493C9.57242 13.2868 8.8253 14.0512 8.8253 14.0512L7.88772 15.0102C7.81916 15.0814 7.69872 15.033 7.69872 14.9346V12.9674C7.69872 12.9349 7.67544 12.9073 7.6434 12.901C7.64321 12.901 7.64305 12.9009 7.64286 12.9009C7.23471 12.8103 6.76688 12.4924 6.40649 12.1076L5.67188 12.7563C6.13067 13.2537 6.72241 13.6558 7.29968 13.8201V15.0076C7.29968 15.4375 7.82526 15.6486 8.12412 15.3384L9.33143 14.0877C9.59331 14.1023 9.85523 14.1104 10.1172 14.1104C11.0073 14.1104 11.8978 14.0265 12.7817 13.8585L12.794 13.856C13.8873 13.6185 15.0777 12.477 15.3417 11.4131L15.345 11.4001C15.6714 9.91432 15.6714 8.40771 15.3451 6.92198Z" fill="#D1D1D1"/>
<path d="M11.6803 12.0927C11.7771 12.0629 11.5688 12.0589 11.6803 12.0927V12.0927Z" fill="white"/>
<path d="M12.5081 10.836C12.3633 10.7088 12.2068 10.5997 12.0498 10.4881C11.8897 10.3744 11.7288 10.262 11.5626 10.1572C11.3966 10.0525 11.1996 10.0541 11.0454 10.1797C10.8877 10.3083 10.8149 10.5543 10.5898 10.5805C10.4554 10.5961 10.3382 10.5398 10.2216 10.4915C9.77306 10.3055 9.43273 10.0211 9.17552 9.66208L8.62891 10.1449C8.64747 10.1663 8.66519 10.1883 8.68407 10.2095C9.42223 11.0374 10.3541 11.5776 11.3667 11.9963C11.4644 12.0366 11.5696 12.0591 11.68 12.0925C11.5696 12.059 11.7761 12.063 11.68 12.0925C11.7761 12.063 11.8777 12.0482 11.9629 12.0028C12.2644 11.8413 12.4734 11.5885 12.617 11.2846C12.6955 11.1187 12.6475 10.9583 12.5081 10.836Z" fill="#D1D1D1"/>
<path d="M11.0754 7.9838L10.8389 8.19277C10.8519 8.20066 10.8647 8.20889 10.8771 8.21785C10.9913 8.30076 11.0634 8.4261 11.0967 8.5614C11.1136 8.63011 11.1199 8.70159 11.1278 8.77223C11.1388 8.86891 11.1939 8.92834 11.2952 8.93181C11.3026 8.93161 11.3099 8.93146 11.3145 8.93142C11.3633 8.92604 11.4122 8.89195 11.4278 8.8247C11.4373 8.78404 11.4329 8.73906 11.4292 8.69655C11.3998 8.35974 11.272 8.12864 11.0754 7.9838Z" fill="#D1D1D1"/>
<path d="M15.346 6.92185L15.3427 6.90885C15.0787 5.845 13.8882 4.70348 12.795 4.466L12.7827 4.46346C11.0144 4.12729 9.22153 4.12729 7.45367 4.46346L7.44097 4.466C6.34813 4.70348 5.15765 5.84508 4.89326 6.90885L4.89033 6.92185C4.5639 8.4075 4.5639 9.91419 4.89033 11.3998L4.89326 11.4128C5.14642 12.4313 6.24818 13.5204 7.30061 13.8199V15.0074C7.30061 15.4373 7.82619 15.6483 8.12505 15.3382L9.33236 14.0875C9.59424 14.1021 9.85624 14.1102 10.1182 14.1102C11.0082 14.1102 11.8987 14.0263 12.7826 13.8583L12.795 13.8557C13.8882 13.6183 15.0786 12.4767 15.3427 11.4129L15.3459 11.3999C15.6723 9.91419 15.6723 8.40758 15.346 6.92185ZM14.3905 11.1844C14.2142 11.8785 13.3103 12.7413 12.5922 12.9008C11.652 13.079 10.7043 13.1551 9.75765 13.129C9.73881 13.1284 9.7207 13.1357 9.70762 13.1492C9.57324 13.2866 8.82612 14.0511 8.82612 14.0511L7.88854 15.0101C7.81998 15.0813 7.69954 15.0328 7.69954 14.9345V12.9672C7.69954 12.9347 7.67626 12.9071 7.64422 12.9008C7.64402 12.9008 7.64387 12.9008 7.64368 12.9007C6.92551 12.7413 6.02197 11.8785 5.84536 11.1844C5.55156 9.84152 5.55156 8.48017 5.84536 7.13729C6.02197 6.44323 6.92551 5.58039 7.64368 5.42097C9.28569 5.10974 10.9506 5.10974 12.5922 5.42097C13.3107 5.58039 14.2142 6.44323 14.3905 7.13729C14.6846 8.48021 14.6846 9.84156 14.3905 11.1844Z" fill="white"/>
<path d="M11.6801 12.0926C11.5697 12.0591 11.4645 12.0367 11.3667 11.9964C10.3541 11.5777 9.42225 11.0375 8.68412 10.2096C8.26435 9.73879 7.9358 9.20723 7.6581 8.6447C7.52638 8.37794 7.4154 8.10076 7.30225 7.8253C7.19911 7.57416 7.35105 7.31471 7.51102 7.12543C7.66114 6.94781 7.85435 6.81193 8.06358 6.71171C8.22687 6.63353 8.38792 6.67862 8.5072 6.81654C8.76499 7.11477 9.00186 7.42824 9.19356 7.77394C9.3115 7.98657 9.27915 8.24648 9.0654 8.39118C9.01344 8.42634 8.96612 8.46766 8.91775 8.50736C8.87528 8.54218 8.83537 8.57734 8.80626 8.62447C8.7531 8.71068 8.75056 8.81244 8.78476 8.90619C9.0483 9.62795 9.4925 10.1892 10.2215 10.4916C10.3382 10.54 10.4553 10.5962 10.5897 10.5807C10.8148 10.5545 10.8877 10.3084 11.0454 10.1799C11.1995 10.0543 11.3966 10.0526 11.5626 10.1573C11.7287 10.2621 11.8897 10.3745 12.0497 10.4882C12.2068 10.5998 12.3632 10.7088 12.5081 10.8361C12.6474 10.9584 12.6954 11.1188 12.6169 11.2847C12.4733 11.5887 12.2643 11.8415 11.9629 12.0029C11.8777 12.0484 11.7761 12.0631 11.6801 12.0926C11.5697 12.0591 11.7761 12.0631 11.6801 12.0926Z" fill="white"/>
<path d="M10.1205 6.36417C11.4449 6.40118 12.5328 7.27713 12.7659 8.58208C12.8057 8.80445 12.8198 9.03174 12.8375 9.25745C12.8449 9.35236 12.791 9.44253 12.6882 9.4438C12.582 9.44507 12.5343 9.35651 12.5273 9.26168C12.5137 9.07386 12.5043 8.88516 12.4783 8.69896C12.3412 7.71567 11.5545 6.90219 10.5724 6.72765C10.4246 6.70137 10.2734 6.69448 10.1237 6.67883C10.0291 6.66894 9.90516 6.66325 9.88419 6.54598C9.86663 6.44769 9.94986 6.36944 10.0438 6.3644C10.0692 6.3629 10.0949 6.36409 10.1205 6.36417C11.445 6.40118 10.0949 6.36409 10.1205 6.36417Z" fill="white"/>
<path d="M12.1333 8.96449C12.1311 8.981 12.13 9.01974 12.1202 9.05621C12.0851 9.1887 11.8834 9.20528 11.8371 9.0716C11.8233 9.03193 11.8213 8.98677 11.8212 8.94406C11.8207 8.66453 11.7598 8.38523 11.6183 8.14197C11.4729 7.89195 11.2507 7.68186 10.9901 7.55463C10.8326 7.47777 10.6622 7.42995 10.4895 7.40152C10.414 7.38905 10.3377 7.38155 10.2619 7.37101C10.17 7.35827 10.1209 7.29991 10.1253 7.20966C10.1293 7.1251 10.1914 7.0642 10.2839 7.06947C10.5878 7.08663 10.8814 7.15218 11.1516 7.29476C11.7011 7.58479 12.015 8.04253 12.1067 8.6538C12.1108 8.68153 12.1175 8.70893 12.1196 8.7367C12.1247 8.80526 12.128 8.87393 12.1333 8.96449C12.1311 8.98092 12.128 8.87393 12.1333 8.96449Z" fill="white"/>
<path d="M11.3094 8.93259C11.1987 8.93459 11.1394 8.87342 11.1279 8.77224C11.12 8.70169 11.1136 8.63013 11.0967 8.56142C11.0635 8.42612 10.9913 8.30078 10.8771 8.21787C10.8232 8.17875 10.7621 8.15024 10.6982 8.13177C10.6169 8.10834 10.5324 8.11481 10.4514 8.09503C10.3634 8.07353 10.3146 8.00243 10.3285 7.92014C10.3411 7.8452 10.4142 7.78672 10.4964 7.79269C11.0099 7.82962 11.3769 8.09419 11.4293 8.69665C11.433 8.73916 11.4373 8.78405 11.4279 8.82479C11.4116 8.89431 11.3599 8.92921 11.3094 8.93259C11.1986 8.93455 11.3599 8.92921 11.3094 8.93259Z" fill="white"/>
<path d="M10.125 6.36552C10.1235 6.36552 10.1221 6.36537 10.1206 6.36537C10.1192 6.36527 10.121 6.36537 10.125 6.36552Z" fill="white"/>
<path d="M10.1211 6.36414C10.1222 6.36414 10.1233 6.36425 10.1244 6.36425C10.1979 6.36687 11.3934 6.39968 10.1211 6.36414Z" fill="white"/>
<path d="M12.0211 7.14948L11.7881 7.35534C12.1543 7.71043 12.4068 8.18105 12.479 8.69895C12.505 8.88523 12.5145 9.07385 12.5281 9.26167C12.535 9.35658 12.5828 9.4451 12.689 9.44387C12.7918 9.4426 12.8457 9.35246 12.8383 9.25751C12.8206 9.03184 12.8065 8.80447 12.7667 8.58215C12.6647 8.01093 12.3989 7.52192 12.0211 7.14948Z" fill="#D1D1D1"/>
<path d="M12.107 8.65375C12.0402 8.20833 11.8548 7.84485 11.5468 7.56793L11.3145 7.77318C11.4346 7.87947 11.5386 8.00431 11.6186 8.142C11.7601 8.38526 11.8211 8.66456 11.8215 8.94409C11.8216 8.98679 11.8237 9.03196 11.8374 9.0717C11.8839 9.20546 12.0855 9.18888 12.1206 9.05631C12.1303 9.01976 12.1314 8.98102 12.1336 8.9646C12.1314 8.9811 12.1283 8.87407 12.1336 8.9646C12.1283 8.87407 12.1251 8.80536 12.1199 8.73673C12.1178 8.70884 12.1111 8.68145 12.107 8.65375Z" fill="#D1D1D1"/>
<path d="M12.1328 8.96445C12.1275 8.87389 12.1306 8.98088 12.1328 8.96445V8.96445Z" fill="white"/>
<path d="M11.3096 8.93264C11.3114 8.93252 11.3131 8.9316 11.3148 8.9314C11.31 8.9314 11.3025 8.93152 11.2949 8.9318C11.2999 8.93192 11.3044 8.93268 11.3096 8.93264Z" fill="white"/>
<path d="M11.3092 8.93397C11.3042 8.93405 11.2998 8.93332 11.2951 8.93317C11.2712 8.93382 11.2465 8.93509 11.3092 8.93397Z" fill="white"/>
<path d="M11.3152 8.93137C11.3133 8.93158 11.3114 8.93257 11.3096 8.93269C11.324 8.93171 11.3227 8.93137 11.3152 8.93137Z" fill="white"/>
</g>
<defs>
<clipPath id="clip0">
<rect x="0.235352" width="19.7647" height="19.6973" fill="white"/>
</clipPath>
</defs>
</svg>
