<svg width="16" height="13" viewBox="0 0 16 13" fill="none" xmlns="http://www.w3.org/2000/svg">
<path d="M1.53568 3.87499C1.73808 4.01781 2.34819 4.442 3.36602 5.14733C4.38389 5.85265 5.16365 6.39574 5.70533 6.77661C5.76484 6.81836 5.89127 6.90911 6.0847 7.049C6.27815 7.18897 6.43889 7.30209 6.5668 7.38837C6.6948 7.47462 6.84954 7.57138 7.03117 7.67849C7.21274 7.7855 7.3839 7.866 7.54461 7.91929C7.70535 7.97302 7.85415 7.99963 7.99103 7.99963H8H8.00901C8.14589 7.99963 8.29475 7.97298 8.45549 7.91929C8.61614 7.866 8.78745 7.78541 8.96887 7.67849C9.15038 7.57125 9.30511 7.47459 9.43311 7.38837C9.56111 7.30209 9.72173 7.18897 9.91525 7.049C10.1086 6.90899 10.2352 6.81836 10.2947 6.77661C10.8423 6.39574 12.2353 5.42844 14.4733 3.8748C14.9078 3.57136 15.2708 3.20522 15.5624 2.77662C15.8542 2.34822 16 1.89879 16 1.42861C16 1.03569 15.8586 0.699355 15.5758 0.419619C15.2931 0.139821 14.9582 0 14.5714 0H1.42851C0.970209 0 0.617514 0.154738 0.37049 0.464214C0.123497 0.773753 0 1.16066 0 1.62491C0 1.9999 0.163745 2.40626 0.491078 2.84374C0.818379 3.28124 1.1667 3.62503 1.53568 3.87499Z" fill="#FF9110"/>
<path d="M15.107 4.83025C13.1549 6.15156 11.6725 7.17844 10.6608 7.91066C10.3215 8.16056 10.0462 8.35564 9.83487 8.49543C9.6235 8.63531 9.34239 8.77817 8.99113 8.92393C8.64 9.06991 8.31276 9.14269 8.00913 9.14269H8.00003H7.99105C7.68749 9.14269 7.36006 9.06991 7.00893 8.92393C6.6578 8.77817 6.3765 8.63531 6.16519 8.49543C5.95394 8.35564 5.67862 8.16056 5.33937 7.91066C4.53575 7.32142 3.05661 6.29448 0.901877 4.83025C0.562505 4.60421 0.26191 4.34512 0 4.0535V11.1426C0 11.5357 0.139821 11.8718 0.419619 12.1516C0.699355 12.4315 1.03573 12.5713 1.42861 12.5713H14.5715C14.9643 12.5713 15.3006 12.4315 15.5804 12.1516C15.8603 11.8717 16 11.5357 16 11.1426V4.0535C15.744 4.33908 15.4465 4.59818 15.107 4.83025Z" fill="#FF9110"/>
</svg>
