<svg width="20" height="20" viewBox="0 0 20 20" fill="none" xmlns="http://www.w3.org/2000/svg">
<g clip-path="url(#clip0)">
<path d="M10.003 0H9.99803C4.54916 0 0.118164 4.41713 0.118164 9.84867C0.118164 12.0031 0.814869 13.9999 1.99951 15.6212L0.767928 19.28L4.56645 18.0698C6.12909 19.1015 7.99315 19.6973 10.003 19.6973C15.4518 19.6973 19.8828 15.279 19.8828 9.84867C19.8828 4.41836 15.4518 0 10.003 0Z" fill="#4CAF50"/>
<path d="M15.7532 13.9076C15.5148 14.5785 14.5685 15.135 13.8138 15.2975C13.2974 15.407 12.623 15.4945 10.3525 14.5564C7.44831 13.3573 5.57808 10.4162 5.43232 10.2254C5.29273 10.0346 4.25879 8.6681 4.25879 7.25482C4.25879 5.84153 4.97896 5.15336 5.26926 4.8579C5.50767 4.61538 5.90173 4.50458 6.27973 4.50458C6.40202 4.50458 6.51196 4.51073 6.61079 4.51566C6.90108 4.52797 7.04684 4.5452 7.23831 5.00194C7.47672 5.57439 8.05731 6.98767 8.12649 7.13294C8.1969 7.27821 8.26731 7.47518 8.16849 7.666C8.07584 7.86297 7.99431 7.95038 7.84855 8.11781C7.70278 8.28523 7.56443 8.41327 7.41867 8.593C7.28525 8.74935 7.13455 8.91678 7.30255 9.20608C7.47055 9.48923 8.05114 10.4335 8.90596 11.1918C10.0091 12.1705 10.9034 12.4832 11.2234 12.6162C11.4618 12.7147 11.7459 12.6913 11.9201 12.5066C12.1412 12.269 12.4142 11.8751 12.6921 11.4873C12.8898 11.2091 13.1393 11.1746 13.4012 11.2731C13.668 11.3654 15.0799 12.061 15.3702 12.205C15.6605 12.3503 15.852 12.4192 15.9224 12.5411C15.9916 12.663 15.9916 13.2354 15.7532 13.9076Z" fill="#FAFAFA"/>
</g>
<defs>
<clipPath id="clip0">
<rect x="0.118164" width="19.7647" height="19.6973" fill="white"/>
</clipPath>
</defs>
</svg>
