<svg width="20" height="20" viewBox="0 0 20 20" fill="none" xmlns="http://www.w3.org/2000/svg">
<g clip-path="url(#clip0)">
<path d="M9.88222 19.6978C15.34 19.6978 19.7644 15.2885 19.7644 9.84928C19.7644 4.41008 15.34 0.000732422 9.88222 0.000732422C4.42442 0.000732422 0 4.41008 0 9.84928C0 15.2885 4.42442 19.6978 9.88222 19.6978Z" fill="#41B4E6"/>
<path d="M19.765 9.84893C19.765 9.60894 19.756 9.37115 19.7391 9.13544L15.6433 5.05374L4.12207 9.57024L8.53017 13.9634L8.588 14.1708L8.66285 14.0956L8.66316 14.0959L8.588 14.1708L13.4642 19.0304C17.1515 17.6008 19.765 14.0292 19.765 9.84893Z" fill="#0091C8"/>
<path d="M8.92299 11.2838L13.389 14.6442L15.6434 5.05374L4.12207 9.57024L7.62787 10.7275L14.026 6.45041L8.92299 11.2838Z" fill="white"/>
<path d="M7.62793 10.7274L8.5881 14.1707L8.92306 11.2837L14.0261 6.45032L7.62793 10.7274Z" fill="#D2D2D7"/>
<path d="M10.3743 12.3758L8.58789 14.1707L8.92285 11.2837L10.3743 12.3758Z" fill="#B9B9BE"/>
</g>
<defs>
<clipPath id="clip0">
<rect width="19.7647" height="19.6973" fill="white"/>
</clipPath>
</defs>
</svg>
