<svg width="181" height="72" viewBox="0 0 181 72" fill="none" xmlns="http://www.w3.org/2000/svg">
<path fill-rule="evenodd" clip-rule="evenodd" d="M71.0649 0.0541687L111.18 23.3581H90.1631L69.2805 11.4579L10.8202 23.7675V57.1949H180.604V60.4323H0.0288086V15.0118L71.0649 0.0541687Z" fill="#FF9110"/>
<path fill-rule="evenodd" clip-rule="evenodd" d="M122.537 23.3575L80.9639 0H102.7L144.453 23.3575H122.537Z" fill="white"/>
<path fill-rule="evenodd" clip-rule="evenodd" d="M155.63 23.3575L114.057 0H135.793L177.546 23.3575H155.63Z" fill="white"/>
<path d="M3.86331 66.5683C3.86331 66.9136 3.74101 67.1918 3.4964 67.4029C3.2518 67.6139 2.94005 67.7458 2.56115 67.7985V67.8201C3.03118 67.8681 3.39089 68 3.64029 68.2158C3.89448 68.4268 4.02158 68.7026 4.02158 69.0431C4.02158 69.494 3.83693 69.8633 3.46763 70.1511C3.10312 70.434 2.56595 70.5755 1.85612 70.5755C1.46763 70.5755 1.1223 70.5515 0.820144 70.5036C0.522782 70.4556 0.263789 70.3861 0.0431654 70.2949V69.3813C0.191847 69.4532 0.359712 69.5156 0.546763 69.5683C0.733813 69.6163 0.923261 69.6547 1.11511 69.6834C1.30695 69.7074 1.48441 69.7194 1.64748 69.7194C2.10312 69.7194 2.43165 69.6547 2.63309 69.5252C2.83933 69.3909 2.94245 69.2038 2.94245 68.964C2.94245 68.7194 2.79377 68.5419 2.4964 68.4316C2.19904 68.3165 1.79856 68.259 1.29496 68.259H0.81295V67.4101H1.2446C1.65228 67.4101 1.96883 67.3837 2.19424 67.3309C2.41966 67.2782 2.57794 67.2014 2.66906 67.1007C2.76019 67 2.80576 66.8801 2.80576 66.741C2.80576 66.5635 2.72662 66.4244 2.56835 66.3237C2.41487 66.2182 2.18225 66.1654 1.8705 66.1654C1.60671 66.1654 1.35731 66.2038 1.1223 66.2806C0.892086 66.3573 0.676259 66.458 0.47482 66.5827L0 65.8561C0.263789 65.6834 0.556355 65.5467 0.877698 65.446C1.19904 65.3453 1.58034 65.2949 2.02158 65.2949C2.60192 65.2949 3.05276 65.4148 3.3741 65.6547C3.70024 65.8945 3.86331 66.199 3.86331 66.5683Z" fill="white"/>
<path d="M11.219 70.5036L10.8449 69.2806H8.97437L8.60027 70.5036H7.42761L9.24056 65.3453H10.5715L12.3916 70.5036H11.219ZM10.5859 68.3669L10.2118 67.1726C10.1878 67.0911 10.1566 66.988 10.1183 66.8633C10.0799 66.7386 10.0415 66.6115 10.0031 66.482C9.96478 66.3525 9.9336 66.2398 9.90962 66.1439C9.88564 66.2398 9.85207 66.3597 9.8089 66.5036C9.77053 66.6427 9.73217 66.777 9.6938 66.9065C9.66022 67.0312 9.63384 67.1199 9.61466 67.1726L9.24775 68.3669H10.5859Z" fill="white"/>
<path d="M16.1357 65.3669H17.7329C18.4187 65.3669 18.9367 65.4628 19.2868 65.6547C19.6369 65.8465 19.812 66.1846 19.812 66.669C19.812 66.9616 19.7425 67.2086 19.6034 67.4101C19.4691 67.6115 19.2748 67.7338 19.0206 67.777V67.8129C19.1933 67.8465 19.3492 67.9065 19.4883 67.9928C19.6273 68.0791 19.7377 68.2038 19.8192 68.3669C19.9007 68.53 19.9415 68.7458 19.9415 69.0144C19.9415 69.4796 19.7736 69.8441 19.4379 70.1079C19.1022 70.3717 18.6417 70.5036 18.0566 70.5036H16.1357V65.3669ZM17.2221 67.4029H17.8552C18.1717 67.4029 18.3899 67.3525 18.5098 67.2518C18.6345 67.1511 18.6969 67.0048 18.6969 66.8129C18.6969 66.6163 18.6249 66.4748 18.4811 66.3885C18.3372 66.3021 18.1094 66.259 17.7976 66.259H17.2221V67.4029ZM17.2221 68.2662V69.6043H17.9343C18.2604 69.6043 18.4883 69.5419 18.6178 69.4172C18.7472 69.2878 18.812 69.1175 18.812 68.9065C18.812 68.7146 18.7448 68.5611 18.6106 68.446C18.4811 68.3261 18.2437 68.2662 17.8983 68.2662H17.2221Z" fill="white"/>
<path d="M28.7248 67.928C28.7248 68.4604 28.636 68.9256 28.4586 69.3237C28.2859 69.717 28.0197 70.024 27.66 70.2446C27.3003 70.4652 26.8399 70.5755 26.2787 70.5755C25.7224 70.5755 25.2619 70.4652 24.8974 70.2446C24.5377 70.024 24.2691 69.7146 24.0917 69.3165C23.919 68.9184 23.8327 68.4532 23.8327 67.9208C23.8327 67.3885 23.919 66.9256 24.0917 66.5324C24.2691 66.1391 24.5377 65.8345 24.8974 65.6187C25.2619 65.3981 25.7248 65.2878 26.2859 65.2878C26.8423 65.2878 27.3003 65.3981 27.66 65.6187C28.0197 65.8345 28.2859 66.1415 28.4586 66.5395C28.636 66.9328 28.7248 67.3957 28.7248 67.928ZM24.9766 67.928C24.9766 68.4652 25.0797 68.8897 25.2859 69.2014C25.4922 69.5084 25.8231 69.6619 26.2787 69.6619C26.744 69.6619 27.0773 69.5084 27.2787 69.2014C27.4802 68.8897 27.5809 68.4652 27.5809 67.928C27.5809 67.3861 27.4802 66.9616 27.2787 66.6547C27.0773 66.3477 26.7464 66.1942 26.2859 66.1942C25.8255 66.1942 25.4922 66.3477 25.2859 66.6547C25.0797 66.9616 24.9766 67.3861 24.9766 67.928Z" fill="white"/>
<path d="M36.7634 65.3669V69.5971H37.4468V72H36.3965V70.5036H33.1806V72H32.1303V69.5971H32.526C32.7082 69.2374 32.8785 68.8537 33.0368 68.446C33.195 68.0336 33.3365 67.5755 33.4612 67.0719C33.5907 66.5683 33.6938 66 33.7706 65.3669H36.7634ZM35.677 66.2734H34.6339C34.5907 66.6043 34.5212 66.964 34.4253 67.3525C34.3341 67.7362 34.2238 68.1223 34.0943 68.5108C33.9648 68.8945 33.8233 69.2566 33.6699 69.5971H35.677V66.2734Z" fill="white"/>
<path d="M50.1435 70.5036L48.9061 66.4748H48.8773C48.8821 66.5707 48.8893 66.7146 48.8989 66.9065C48.9085 67.0983 48.9181 67.3045 48.9277 67.5252C48.9373 67.741 48.9421 67.9376 48.9421 68.1151V70.5036H47.9708V65.3669H49.4528L50.6687 69.2949H50.6903L51.978 65.3669H53.46V70.5036H52.4457V68.0719C52.4457 67.9089 52.4481 67.7218 52.4528 67.5108C52.4624 67.2997 52.4696 67.1007 52.4744 66.9136C52.484 66.7218 52.4912 66.5779 52.496 66.482H52.4672L51.1435 70.5036H50.1435Z" fill="white"/>
<path d="M60.8079 70.5036H57.8511V65.3669H60.8079V66.259H58.9374V67.3885H60.6785V68.2806H58.9374V69.6043H60.8079V70.5036Z" fill="white"/>
<path d="M66.9487 70.5036H65.8624V66.2734H64.4667V65.3669H68.3444V66.2734H66.9487V70.5036Z" fill="white"/>
<path d="M74.8681 70.5036L74.494 69.2806H72.6235L72.2494 70.5036H71.0767L72.8897 65.3453H74.2206L76.0408 70.5036H74.8681ZM74.235 68.3669L73.8609 67.1726C73.8369 67.0911 73.8057 66.988 73.7674 66.8633C73.729 66.7386 73.6906 66.6115 73.6523 66.482C73.6139 66.3525 73.5827 66.2398 73.5587 66.1439C73.5348 66.2398 73.5012 66.3597 73.458 66.5036C73.4196 66.6427 73.3813 66.777 73.3429 66.9065C73.3093 67.0312 73.283 67.1199 73.2638 67.1726L72.8969 68.3669H74.235Z" fill="white"/>
<path d="M83.8496 70.5036H82.7633V66.2734H81.5043C81.4755 66.494 81.4443 66.7338 81.4108 66.9928C81.382 67.2518 81.3484 67.5156 81.31 67.7842C81.2765 68.0479 81.2405 68.2997 81.2021 68.5395C81.1637 68.7746 81.1254 68.9832 81.087 69.1654C81.0247 69.4628 80.9407 69.717 80.8352 69.928C80.7345 70.1391 80.593 70.2997 80.4107 70.4101C80.2333 70.5204 80.0007 70.5755 79.7129 70.5755C79.5259 70.5755 79.3532 70.5491 79.1949 70.4964V69.6043C79.2573 69.6235 79.3172 69.6403 79.3748 69.6547C79.4371 69.669 79.5043 69.6762 79.5762 69.6762C79.7153 69.6762 79.8208 69.6043 79.8928 69.4604C79.9695 69.3117 80.0462 69.036 80.123 68.6331C80.1518 68.4796 80.1925 68.2398 80.2453 67.9136C80.298 67.5875 80.3556 67.2062 80.4179 66.7698C80.4851 66.3285 80.5474 65.8609 80.605 65.3669H83.8496V70.5036Z" fill="white"/>
<path d="M92.9008 67.928C92.9008 68.4604 92.8121 68.9256 92.6346 69.3237C92.4619 69.717 92.1958 70.024 91.8361 70.2446C91.4763 70.4652 91.0159 70.5755 90.4548 70.5755C89.8984 70.5755 89.438 70.4652 89.0735 70.2446C88.7138 70.024 88.4452 69.7146 88.2677 69.3165C88.095 68.9184 88.0087 68.4532 88.0087 67.9208C88.0087 67.3885 88.095 66.9256 88.2677 66.5324C88.4452 66.1391 88.7138 65.8345 89.0735 65.6187C89.438 65.3981 89.9008 65.2878 90.462 65.2878C91.0183 65.2878 91.4763 65.3981 91.8361 65.6187C92.1958 65.8345 92.4619 66.1415 92.6346 66.5395C92.8121 66.9328 92.9008 67.3957 92.9008 67.928ZM89.1526 67.928C89.1526 68.4652 89.2557 68.8897 89.462 69.2014C89.6682 69.5084 89.9991 69.6619 90.4548 69.6619C90.92 69.6619 91.2533 69.5084 91.4548 69.2014C91.6562 68.8897 91.7569 68.4652 91.7569 67.928C91.7569 67.3861 91.6562 66.9616 91.4548 66.6547C91.2533 66.3477 90.9224 66.1942 90.462 66.1942C90.0015 66.1942 89.6682 66.3477 89.462 66.6547C89.2557 66.9616 89.1526 67.3861 89.1526 67.928Z" fill="white"/>
<path d="M101.245 70.5036H100.008L98.1447 67.8993V70.5036H97.0583V65.3669H98.1447V67.8561L99.9864 65.3669H101.145L99.2742 67.8345L101.245 70.5036Z" fill="white"/>
<path d="M109.507 67.928C109.507 68.4604 109.418 68.9256 109.241 69.3237C109.068 69.717 108.802 70.024 108.442 70.2446C108.082 70.4652 107.622 70.5755 107.061 70.5755C106.504 70.5755 106.044 70.4652 105.68 70.2446C105.32 70.024 105.051 69.7146 104.874 69.3165C104.701 68.9184 104.615 68.4532 104.615 67.9208C104.615 67.3885 104.701 66.9256 104.874 66.5324C105.051 66.1391 105.32 65.8345 105.68 65.6187C106.044 65.3981 106.507 65.2878 107.068 65.2878C107.624 65.2878 108.082 65.3981 108.442 65.6187C108.802 65.8345 109.068 66.1415 109.241 66.5395C109.418 66.9328 109.507 67.3957 109.507 67.928ZM105.759 67.928C105.759 68.4652 105.862 68.8897 106.068 69.2014C106.274 69.5084 106.605 69.6619 107.061 69.6619C107.526 69.6619 107.859 69.5084 108.061 69.2014C108.262 68.8897 108.363 68.4652 108.363 67.928C108.363 67.3861 108.262 66.9616 108.061 66.6547C107.859 66.3477 107.528 66.1942 107.068 66.1942C106.608 66.1942 106.274 66.3477 106.068 66.6547C105.862 66.9616 105.759 67.3861 105.759 67.928Z" fill="white"/>
<path d="M117.873 70.5036H116.787V68.2878H114.751V70.5036H113.664V65.3669H114.751V67.3813H116.787V65.3669H117.873V70.5036Z" fill="white"/>
<path d="M124.439 66.2014C124.022 66.2014 123.703 66.3573 123.482 66.669C123.261 66.9808 123.151 67.4077 123.151 67.9496C123.151 68.4964 123.252 68.9208 123.453 69.223C123.659 69.5204 123.988 69.669 124.439 69.669C124.65 69.669 124.859 69.6451 125.065 69.5971C125.276 69.5491 125.504 69.482 125.748 69.3957V70.3093C125.523 70.4005 125.3 70.4676 125.079 70.5108C124.859 70.5539 124.612 70.5755 124.338 70.5755C123.811 70.5755 123.374 70.4676 123.029 70.2518C122.688 70.0312 122.436 69.7242 122.273 69.3309C122.11 68.9328 122.029 68.47 122.029 67.9424C122.029 67.4244 122.122 66.9664 122.309 66.5683C122.496 66.1702 122.767 65.8585 123.122 65.6331C123.482 65.4077 123.921 65.2949 124.439 65.2949C124.693 65.2949 124.947 65.3285 125.201 65.3957C125.46 65.458 125.707 65.5443 125.942 65.6547L125.59 66.5395C125.398 66.4484 125.204 66.3693 125.007 66.3021C124.815 66.235 124.626 66.2014 124.439 66.2014Z" fill="white"/>
<path d="M131.912 70.5036H130.825V66.2734H129.43V65.3669H133.307V66.2734H131.912V70.5036Z" fill="white"/>
<path d="M138.833 65.3669C139.495 65.3669 139.977 65.5108 140.279 65.7985C140.586 66.0815 140.74 66.4724 140.74 66.9712C140.74 67.2686 140.677 67.5491 140.553 67.8129C140.428 68.0719 140.219 68.2806 139.927 68.4388C139.639 68.5971 139.246 68.6762 138.747 68.6762H138.279V70.5036H137.193V65.3669H138.833ZM138.776 66.259H138.279V67.7842H138.639C138.946 67.7842 139.188 67.7242 139.366 67.6043C139.548 67.4796 139.639 67.2806 139.639 67.0072C139.639 66.5084 139.351 66.259 138.776 66.259Z" fill="white"/>
<path d="M148.926 65.3669L147.336 69C147.192 69.3261 147.039 69.6091 146.876 69.8489C146.718 70.0839 146.514 70.2638 146.264 70.3885C146.015 70.5132 145.689 70.5755 145.286 70.5755C145.161 70.5755 145.025 70.5659 144.876 70.5467C144.727 70.5276 144.591 70.5012 144.466 70.4676V69.5324C144.581 69.5803 144.708 69.6139 144.847 69.6331C144.986 69.6523 145.116 69.6619 145.236 69.6619C145.475 69.6619 145.648 69.6043 145.754 69.4892C145.859 69.3693 145.943 69.2254 146.005 69.0575L144.228 65.3669H145.38L146.336 67.5899C146.37 67.6619 146.415 67.765 146.473 67.8993C146.531 68.0288 146.574 68.1391 146.603 68.2302H146.638C146.667 68.1439 146.708 68.0312 146.761 67.8921C146.818 67.753 146.869 67.6307 146.912 67.5252L147.804 65.3669H148.926Z" fill="white"/>
<path d="M156.855 70.5036H155.618L153.754 67.8993V70.5036H152.668V65.3669H153.754V67.8561L155.596 65.3669H156.754L154.884 67.8345L156.855 70.5036Z" fill="white"/>
<path d="M165.422 69.6403V72H164.372V70.5036H160.595V65.3669H161.681V69.5971H163.573V65.3669H164.66V69.6403H165.422Z" fill="white"/>
<path d="M171.23 70.5036H168.892V69.8849L169.518 69.5971V66.2734L168.892 65.9856V65.3669H171.23V65.9856L170.604 66.2734V69.5971L171.23 69.8849V70.5036Z" fill="white"/>
<path d="M175.199 65.3669H176.177V67.8489C176.177 67.9688 176.175 68.1031 176.17 68.2518C176.165 68.4005 176.16 68.5467 176.156 68.6906C176.151 68.8297 176.146 68.952 176.141 69.0575C176.136 69.1583 176.132 69.2278 176.127 69.2662H176.148L178.523 65.3669H179.825V70.5036H178.853V68.036C178.853 67.9065 178.856 67.765 178.861 67.6115C178.865 67.4532 178.87 67.3021 178.875 67.1583C178.885 67.0144 178.892 66.8897 178.897 66.7842C178.906 66.6738 178.913 66.6019 178.918 66.5683H178.889L176.508 70.5036H175.199V65.3669ZM179.335 63.6762C179.312 63.9256 179.242 64.1463 179.127 64.3381C179.012 64.5252 178.832 64.6714 178.587 64.777C178.343 64.8825 178.014 64.9352 177.602 64.9352C177.18 64.9352 176.849 64.8849 176.609 64.7842C176.374 64.6786 176.206 64.5324 176.105 64.3453C176.005 64.1583 175.945 63.9352 175.925 63.6762H176.882C176.906 63.94 176.973 64.1151 177.084 64.2014C177.194 64.2877 177.374 64.3309 177.623 64.3309C177.829 64.3309 177.997 64.2854 178.127 64.1942C178.261 64.0983 178.34 63.9256 178.364 63.6762H179.335Z" fill="white"/>
<path fill-rule="evenodd" clip-rule="evenodd" d="M25.1075 47.3525C25.1075 47.3811 25.1061 47.4046 25.104 47.4237C25.0921 47.4242 25.0789 47.4245 25.0643 47.4245H23.4816C23.4665 47.4245 23.4528 47.4242 23.4404 47.4237C23.4392 47.4027 23.4384 47.3791 23.4384 47.3525V34.6331C23.4384 34.6153 23.4394 34.6011 23.4406 34.5902C23.4443 34.59 23.4484 34.59 23.4528 34.59H25.0931C25.0976 34.59 25.1016 34.59 25.1053 34.5902C25.1066 34.6011 25.1075 34.6153 25.1075 34.6331V47.3525ZM29.3375 50.7809C29.6024 50.4718 29.7903 50.1176 29.9001 49.7222L29.9014 49.7175C30.0057 49.3211 30.0571 48.9065 30.0571 48.4748V33.2806C30.0571 32.3891 29.8072 31.6412 29.2713 31.0799C28.7347 30.4774 27.9065 30.2159 26.8773 30.2159H21.6974C20.6637 30.2159 19.8289 30.4796 19.2748 31.0798L19.2744 31.0802C18.7571 31.6425 18.5176 32.3903 18.5176 33.2806V48.4748C18.5176 48.9065 18.569 49.3211 18.6733 49.7175L18.6746 49.7222C18.7844 50.1176 18.9723 50.4718 19.2373 50.7809C19.5078 51.0965 19.8607 51.3464 20.2836 51.5367L20.2906 51.5398L20.2977 51.5426C20.737 51.7184 21.2655 51.7986 21.8701 51.7986H26.7046C27.3092 51.7986 27.8377 51.7184 28.2771 51.5426L28.2841 51.5398L28.2911 51.5367C28.714 51.3464 29.0669 51.0965 29.3375 50.7809ZM35.5991 30.9727L35.5964 30.9752L35.5938 30.9777C35.0433 31.5052 34.7923 32.244 34.7923 33.1367V48.2159C34.7923 49.4019 35.0368 50.3416 35.6122 50.94C36.1955 51.5467 37.1654 51.7986 38.4038 51.7986H44.1736V47.1943H39.8139C39.8094 47.1943 39.8054 47.1942 39.8017 47.194C39.8004 47.1831 39.7995 47.169 39.7995 47.1511V34.8633C39.7995 34.8455 39.8004 34.8313 39.8017 34.8204C39.8054 34.8203 39.8094 34.8202 39.8139 34.8202H44.1736V30.2159H37.5981C36.8231 30.2159 36.1494 30.4665 35.5991 30.9727ZM55.7193 30.2159L53.6005 39.1202V30.2159H48.6221V51.7986H53.6005V43.1943H53.7777L55.418 51.7986H60.7386L58.1862 40.1942L60.7854 30.2159H55.7193ZM69.1377 51.7986L69.5119 49.2087H71.7378L72.1119 51.7986H77.0554L73.1556 30.2159H68.0941L64.1943 51.7986H69.1377ZM71.18 45.1799H70.0712L70.6339 40.9269L71.18 45.1799ZM87.719 42.072C87.7336 42.072 87.7468 42.0717 87.7587 42.0712C87.7608 42.0521 87.7622 42.0285 87.7622 42V34.6331C87.7622 34.6153 87.7613 34.6011 87.76 34.5902C87.7563 34.59 87.7523 34.59 87.7478 34.59H86.0068V42.072H87.719ZM90.7731 46.023L90.7806 46.0204L90.7879 46.0175C91.2107 45.8483 91.5659 45.6195 91.8395 45.3231C92.1095 45.0306 92.2923 44.6898 92.384 44.3054C92.4884 43.9271 92.5392 43.5225 92.5392 43.0936V33.1079C92.5392 32.2736 92.3084 31.5668 91.8142 31.0261C91.3215 30.4652 90.5936 30.2159 89.7046 30.2159H81.1435V51.7986H86.0068V46.2446H89.2154C89.816 46.2446 90.339 46.175 90.7731 46.023ZM113.855 51.7986V43.9206L111.566 51.1379L109.309 43.9449V51.7986H104.532V30.2159H109.573L111.567 37.9423L113.562 30.2159H118.632V51.7986H113.855ZM132.946 30.2159H123.392V51.7986H132.773V47.1943H128.399V43.3669H131.852V39.0504H128.399V34.8202H132.946V30.2159ZM147.404 34.8202V30.2159H136.874L136.84 34.8202H139.634V51.7986H144.612V34.8202H147.404ZM155.882 51.7986L156.256 49.2087H158.482L158.857 51.7986H163.8L159.9 30.2159H154.839L150.939 51.7986H155.882ZM157.925 45.1799H156.816L157.379 40.9268L157.925 45.1799ZM170.824 31.6745C171.109 31.236 171.501 30.8896 171.99 30.6335C172.505 30.3439 173.177 30.2159 173.974 30.2159H180.09V51.7986H175.139L175.168 34.8496C175.093 34.864 175.032 34.8829 174.984 34.9043L174.968 34.9113L174.951 34.9168C174.872 34.9434 174.806 34.9943 174.749 35.0956C174.678 35.224 174.611 35.4149 174.557 35.6821C174.501 35.9636 174.435 36.3321 174.359 36.7887L174.358 36.793L172.633 48.8124L172.633 48.8137L172.215 51.7986H167.251L169.993 34.4331L169.994 34.4301C170.071 33.9649 170.158 33.4997 170.255 33.0346L170.257 33.0276L170.259 33.0207C170.382 32.5269 170.569 32.0784 170.821 31.6784L170.824 31.6745Z" fill="white"/>
</svg>
