<svg width="47" height="35" viewBox="0 0 47 35" fill="none" xmlns="http://www.w3.org/2000/svg">
<path d="M6.34009 3.24109C5.69186 3.24109 5.25977 3.67327 5.25977 4.32141V8.64288C5.25977 9.29111 5.69195 9.7232 6.34009 9.7232C6.98823 9.7232 7.42041 9.29102 7.42041 8.64288V4.32141C7.42041 3.67327 6.98832 3.24109 6.34009 3.24109Z" fill="#F79C04"/>
<path d="M10.6604 3.24109C10.0122 3.24109 9.58008 3.67327 9.58008 4.32141V8.64288C9.58008 9.29111 10.0123 9.7232 10.6604 9.7232C11.3086 9.7232 11.7407 9.29102 11.7407 8.64288V4.32141C11.7407 3.67327 11.3086 3.24109 10.6604 3.24109Z" fill="#F79C04"/>
<path d="M14.9827 3.24109C14.3344 3.24109 13.9023 3.67327 13.9023 4.32141V8.64288C13.9023 9.29111 14.3345 9.7232 14.9827 9.7232C15.6308 9.7232 16.063 9.29102 16.063 8.64288V4.32141C16.0631 3.67327 15.6309 3.24109 14.9827 3.24109Z" fill="#F79C04"/>
<path d="M38.9657 2.59283C37.021 2.59283 35.2925 4.32139 35.2925 6.26607C35.2925 8.21076 37.021 9.93931 38.9657 9.93931C40.9104 9.93931 42.639 8.21076 42.639 6.26607C42.639 4.32139 41.1265 2.59283 38.9657 2.59283ZM38.9657 7.77857C38.1014 7.77857 37.4532 7.13035 37.4532 6.26607C37.4532 5.4018 38.1014 4.75357 38.9657 4.75357C39.83 4.75357 40.4782 5.4018 40.4782 6.26607C40.4782 7.13035 39.83 7.77857 38.9657 7.77857Z" fill="#F79C04"/>
<path d="M6.34009 20.5268C6.98832 20.5268 7.42041 20.0946 7.42041 19.4465V15.125C7.42041 14.4768 6.98823 14.0447 6.34009 14.0447C5.69195 14.0447 5.25977 14.4769 5.25977 15.125V19.4465C5.25977 20.0946 5.69186 20.5268 6.34009 20.5268Z" fill="#F79C04"/>
<path d="M10.6604 20.5268C11.3086 20.5268 11.7407 20.0946 11.7407 19.4465V15.125C11.7407 14.4768 11.3085 14.0447 10.6604 14.0447C10.0122 14.0447 9.58008 14.4769 9.58008 15.125V19.4465C9.57999 20.0946 10.0122 20.5268 10.6604 20.5268Z" fill="#F79C04"/>
<path d="M14.9827 20.5268C15.6309 20.5268 16.063 20.0946 16.063 19.4465V15.125C16.063 14.4768 15.6308 14.0447 14.9827 14.0447C14.3345 14.0447 13.9023 14.4769 13.9023 15.125V19.4465C13.9023 20.0946 14.3345 20.5268 14.9827 20.5268Z" fill="#F79C04"/>
<path d="M38.9657 20.7428C40.9104 20.7428 42.639 19.0142 42.639 17.0695C42.639 15.1249 40.9104 13.3963 38.9657 13.3963C37.021 13.3963 35.2925 15.1249 35.2925 17.0695C35.2925 19.0142 37.021 20.7428 38.9657 20.7428ZM38.9657 15.557C39.83 15.557 40.4782 16.2053 40.4782 17.0695C40.4782 17.9338 39.83 18.582 38.9657 18.582C38.1014 18.582 37.4532 17.9338 37.4532 17.0695C37.4532 16.2053 38.1014 15.557 38.9657 15.557Z" fill="#F79C04"/>
<path d="M45.2322 34.5714C45.8804 34.5714 46.3125 34.1393 46.3125 33.4911V22.6875V11.884V1.08032C46.3125 0.432094 45.8803 0 45.2322 0H2.01782C1.36968 0 0.9375 0.432181 0.9375 1.08032V11.8839V22.6875V33.491C0.9375 34.1393 1.36968 34.5714 2.01782 34.5714H45.2322V34.5714ZM44.1519 21.6071H3.09823V12.9643H44.1519V21.6071ZM44.1519 32.4107H3.09823V23.7679H44.1519V32.4107ZM3.09823 2.16073H44.1519V10.8036H3.09823V2.16073Z" fill="#F79C04"/>
<path d="M6.34009 31.3304C6.98832 31.3304 7.42041 30.8982 7.42041 30.2501V25.9286C7.42041 25.2804 6.98823 24.8483 6.34009 24.8483C5.69195 24.8483 5.25977 25.2804 5.25977 25.9286V30.2501C5.25977 30.8982 5.69186 31.3304 6.34009 31.3304Z" fill="#F79C04"/>
<path d="M10.6604 31.3304C11.3086 31.3304 11.7407 30.8982 11.7407 30.2501V25.9286C11.7407 25.2804 11.3085 24.8483 10.6604 24.8483C10.0122 24.8483 9.58008 25.2804 9.58008 25.9286V30.2501C9.57999 30.8982 10.0122 31.3304 10.6604 31.3304Z" fill="#F79C04"/>
<path d="M14.9827 31.3304C15.6309 31.3304 16.063 30.8982 16.063 30.2501V25.9286C16.063 25.2804 15.6308 24.8483 14.9827 24.8483C14.3345 24.8483 13.9023 25.2804 13.9023 25.9286V30.2501C13.9023 30.8982 14.3345 31.3304 14.9827 31.3304Z" fill="#F79C04"/>
<path d="M38.9657 31.5464C40.9104 31.5464 42.639 29.8178 42.639 27.8731C42.639 25.9284 40.9104 24.1999 38.9657 24.1999C37.021 24.1999 35.2925 25.9284 35.2925 27.8731C35.2925 29.8178 37.021 31.5464 38.9657 31.5464ZM38.9657 26.3607C39.83 26.3607 40.4782 27.0089 40.4782 27.8732C40.4782 28.7375 39.83 29.3857 38.9657 29.3857C38.1014 29.3857 37.4532 28.7375 37.4532 27.8732C37.4532 27.0088 38.1014 26.3607 38.9657 26.3607Z" fill="#F79C04"/>
</svg>
