<svg width="43" height="50" viewBox="0 0 43 50" fill="none" xmlns="http://www.w3.org/2000/svg">
<path d="M41.374 27.4464C41.9115 27.4464 42.3472 27.0108 42.3472 26.4732V11.7453C42.3472 11.3883 42.1518 11.0598 41.8378 10.8899L21.964 0.117468C21.6747 -0.039156 21.3258 -0.039156 21.0365 0.117468L1.16273 10.8899C0.84872 11.0598 0.65332 11.3883 0.65332 11.7453V48.8545C0.65332 49.392 1.08898 49.8277 1.62652 49.8277H41.374C41.9112 49.8277 42.3472 49.392 42.3472 48.8545V35.2274C42.3472 34.6903 41.9112 34.2542 41.374 34.2542C40.8365 34.2542 40.4008 34.6903 40.4008 35.2274V47.8813H32.1792V36.3238C32.1792 35.5559 31.9021 34.8515 31.4425 34.3056C31.8986 33.8273 32.1792 33.1803 32.1792 32.4687V21.1514C32.1792 19.6833 30.9847 18.4888 29.5166 18.4888H13.4839C12.0158 18.4888 10.8213 19.6833 10.8213 21.1514V32.4687C10.8213 33.1803 11.1015 33.8273 11.5577 34.3056C11.0985 34.8515 10.8213 35.5559 10.8213 36.3234V47.8813H2.59971V12.325L21.5003 2.08021L40.4008 12.325V26.4732C40.4008 27.0108 40.8365 27.4464 41.374 27.4464ZM19.3022 20.4352H23.6987V26.5116L21.9568 25.5867C21.8143 25.5107 21.6573 25.473 21.5003 25.473C21.3436 25.473 21.1866 25.5107 21.0437 25.5867L19.3022 26.5116V20.4352ZM12.7677 21.1514C12.7677 20.7565 13.0889 20.4352 13.4839 20.4352H17.3558V28.1303C17.3558 28.4721 17.5349 28.7888 17.8276 28.9644C18.1203 29.1404 18.4837 29.1499 18.7856 28.9899L21.5003 27.5479L24.2153 28.9899C24.3583 29.0659 24.5149 29.1035 24.6715 29.1035C24.8456 29.1035 25.019 29.0571 25.1729 28.9644C25.4657 28.7884 25.6447 28.4721 25.6447 28.1303V20.4352H29.5166C29.9116 20.4352 30.2328 20.7568 30.2328 21.1514V32.4687C30.2328 32.8636 29.9116 33.1852 29.5166 33.1852H13.4839C13.0889 33.1852 12.7677 32.8636 12.7677 32.4687V21.1514ZM23.6987 35.1316V41.208L21.9568 40.2827C21.8139 40.2071 21.6573 40.1691 21.5003 40.1691C21.3436 40.1691 21.1866 40.2071 21.0441 40.2827L19.3022 41.208V35.1316H23.6987ZM12.7677 36.3238C12.7677 35.6661 13.3022 35.1316 13.9595 35.1316H17.3558V42.8267C17.3558 43.1681 17.5349 43.4848 17.8276 43.6608C18.1199 43.8368 18.4837 43.8463 18.7852 43.6863L21.5003 42.2443L24.2153 43.6863C24.3583 43.7623 24.5149 43.7999 24.6715 43.7999C24.8456 43.7999 25.019 43.7532 25.1729 43.6608C25.4657 43.4848 25.6447 43.1681 25.6447 42.8267V35.1316H29.0406C29.6979 35.1316 30.2328 35.6661 30.2328 36.3238V47.8813H12.7677V36.3238Z" fill="#F79C04"/>
<path d="M37.4803 15.0366C37.3237 15.0366 37.1648 14.9985 37.0173 14.9187L21.5001 6.50817L5.98293 14.9187C5.5104 15.1749 4.91964 14.9993 4.6638 14.5272C4.40757 14.0546 4.58282 13.4639 5.05536 13.2076L21.0363 4.54543C21.3256 4.38842 21.6746 4.38842 21.9639 4.54543L37.9448 13.2076C38.4174 13.4639 38.5926 14.0546 38.3368 14.5272C38.1604 14.8522 37.8259 15.0366 37.4803 15.0366Z" fill="#F79C04"/>
<path d="M41.3741 31.8061C40.9662 31.8061 40.597 31.5422 40.4587 31.1602C40.3222 30.7842 40.44 30.3501 40.7445 30.0912C41.0627 29.8205 41.5326 29.7852 41.8877 30.006C42.2271 30.2174 42.4077 30.6299 42.3286 31.0226C42.2385 31.4715 41.8322 31.8061 41.3741 31.8061Z" fill="#F79C04"/>
</svg>
