<svg width="28" height="28" viewBox="0 0 28 28" fill="none" xmlns="http://www.w3.org/2000/svg">
<path d="M14.0001 0C6.2804 0 0 6.28031 0 13.9999C0 21.7195 6.2804 27.9998 14.0001 27.9998C21.7197 27.9998 28 21.7195 28 13.9999C28 6.28031 21.7197 0 14.0001 0ZM14.0001 25.7047C7.5459 25.7047 2.29507 20.4541 2.29507 13.9999C2.29507 7.54581 7.5459 2.29507 14.0001 2.29507C20.4542 2.29507 25.7049 7.54581 25.7049 13.9999C25.7049 20.4541 20.4542 25.7047 14.0001 25.7047Z" fill="#F79C04"/>
<path d="M20.0571 8.62609L11.7448 16.9386L7.94431 13.1381C7.49613 12.69 6.7696 12.69 6.32142 13.1381C5.87333 13.5863 5.87333 14.3128 6.32142 14.761L10.9333 19.3729C11.1574 19.5969 11.4511 19.709 11.7448 19.709C12.0384 19.709 12.3321 19.5969 12.5562 19.3729L21.68 10.2491C22.1281 9.80089 22.1281 9.07437 21.68 8.62619C21.2318 8.17801 20.5052 8.17801 20.0571 8.62609Z" fill="#F79C04"/>
</svg>
