<svg width="46" height="41" viewBox="0 0 46 41" fill="none" xmlns="http://www.w3.org/2000/svg">
<path d="M45.097 9.28606C42.1854 6.3748 38.7949 4.08884 35.0195 2.49185C31.1103 0.838462 26.9581 0 22.6783 0C19.0005 0 15.3954 0.624953 11.963 1.85721C11.5025 2.02262 11.2633 2.52992 11.4288 2.9905C11.5938 3.45074 12.1011 3.6902 12.5617 3.52479C15.8014 2.3614 19.205 1.77174 22.6783 1.77174C30.5521 1.77174 37.9616 4.79096 43.5848 10.2827V12.5704H42.1141C39.6527 10.0685 36.7805 8.09221 33.572 6.69247C30.1293 5.19064 26.4643 4.42935 22.6783 4.42935C18.8922 4.42935 15.2273 5.19064 11.7845 6.69247C8.57563 8.09221 5.70382 10.0685 3.24242 12.5704H1.77174V10.2827C2.97874 9.10473 4.29058 8.02369 5.67579 7.06585C6.07824 6.78763 6.17894 6.23604 5.90072 5.83359C5.6225 5.43114 5.07091 5.33044 4.66846 5.60866C3.0957 6.69593 1.61221 7.93338 0.259532 9.28606C0.0934316 9.45216 0 9.67743 0 9.9124V39.8641C0 40.3534 0.396565 40.75 0.88587 40.75H44.4707C44.96 40.75 45.3565 40.3534 45.3565 39.8641V9.9124C45.3565 9.67743 45.2631 9.45216 45.097 9.28606ZM35.9663 26.5761H9.39022V24.8043H35.9663V26.5761ZM33.3083 36.7632C32.8194 36.7632 32.4225 37.1602 32.4225 37.6491V38.9783H23.5641V28.3478H32.4225V29.6763C32.4225 30.1656 32.8194 30.5622 33.3083 30.5622C33.7977 30.5622 34.1942 30.1656 34.1942 29.6763V28.3478H35.9663V38.9783H34.1946V37.6491C34.1942 37.1602 33.7977 36.7632 33.3083 36.7632ZM21.7924 28.3478V38.9783H12.9337V28.3478H21.7924ZM11.162 28.3478V38.9783H9.39022V28.3478H11.162ZM37.738 38.9783V28.3478C38.2273 28.3478 38.6239 27.9513 38.6239 27.462C38.6239 26.9727 38.2273 26.5761 37.738 26.5761V24.8043C38.2273 24.8043 38.6239 24.4078 38.6239 23.9185C38.6239 23.4292 38.2273 23.0326 37.738 23.0326H7.61848C7.12917 23.0326 6.73261 23.4292 6.73261 23.9185C6.73261 24.4078 7.12917 24.8043 7.61848 24.8043V26.5761C7.12917 26.5761 6.73261 26.9727 6.73261 27.462C6.73261 27.9513 7.12917 28.3478 7.61848 28.3478V38.9783H1.77174V14.3421H3.61684C3.85872 14.3421 4.08953 14.2435 4.25702 14.0687C9.11511 8.99538 15.6571 6.20109 22.6783 6.20109C29.6995 6.20109 36.2414 8.99538 41.0995 14.0687C41.2666 14.2435 41.4978 14.3421 41.7397 14.3421H43.5848V38.9783H37.738Z" fill="#F79C04"/>
<path d="M30.6513 10.6308C30.162 10.6308 29.7655 11.0273 29.7655 11.5166H26.222C26.222 11.0273 25.8254 10.6308 25.3361 10.6308C24.8468 10.6308 24.4503 11.0273 24.4503 11.5166H20.9068C20.9068 11.0273 20.5102 10.6308 20.0209 10.6308C19.5316 10.6308 19.135 11.0273 19.135 11.5166H15.5916C15.5916 11.0273 15.195 10.6308 14.7057 10.6308C14.2164 10.6308 13.8198 11.0273 13.8198 11.5166V18.6036C13.8198 19.0929 14.2164 19.4895 14.7057 19.4895C15.195 19.4895 15.5916 19.0929 15.5916 18.6036H19.135C19.135 19.0929 19.5316 19.4895 20.0209 19.4895C20.5102 19.4895 20.9068 19.0929 20.9068 18.6036H24.4503C24.4503 19.0929 24.8468 19.4895 25.3361 19.4895C25.8254 19.4895 26.222 19.0929 26.222 18.6036H29.7655C29.7655 19.0929 30.162 19.4895 30.6513 19.4895C31.1406 19.4895 31.5372 19.0929 31.5372 18.6036V11.5166C31.5372 11.0273 31.1406 10.6308 30.6513 10.6308ZM15.5916 16.8319V13.2884H19.135V16.8319H15.5916ZM20.9068 16.8319V13.2884H24.4503V16.8319H20.9068ZM29.7655 16.8319H26.222V13.2884H29.7655V16.8319Z" fill="#F79C04"/>
<path d="M8.59721 5.16952C8.73009 5.16952 8.86539 5.13941 8.99273 5.07609L8.99308 5.07574C9.43082 4.8567 9.608 4.32483 9.38895 3.88743C9.17025 3.44969 8.63804 3.27251 8.2003 3.49121C7.7629 3.70991 7.58538 4.24212 7.80408 4.67987C7.95945 4.99027 8.27227 5.16952 8.59721 5.16952Z" fill="#F79C04"/>
<path d="M34.1941 33.6623C34.1941 33.173 33.7975 32.7768 33.3082 32.7768C32.8193 32.7768 32.4224 33.1737 32.4224 33.663C32.4224 34.1523 32.8193 34.5489 33.3082 34.5489C33.7975 34.5489 34.1941 34.1523 34.1941 33.663V33.6623Z" fill="#F79C04"/>
</svg>
