<svg width="45" height="48" viewBox="0 0 45 48" fill="none" xmlns="http://www.w3.org/2000/svg">
<path d="M18.3107 33.8755V11.5734C18.3107 11.0204 17.8582 10.5679 17.3052 10.5679C16.7521 10.5679 16.2997 11.0204 16.2997 11.5734V33.8755C14.2987 34.3381 12.8105 36.1178 12.8105 38.2595C12.8105 40.7331 14.8316 42.7541 17.3052 42.7541C19.7787 42.7541 21.7998 40.7431 21.7998 38.2595C21.8098 36.1178 20.3116 34.328 18.3107 33.8755ZM17.3052 40.7331C15.9377 40.7331 14.8216 39.617 14.8216 38.2495C14.8216 36.882 15.9377 35.7659 17.3052 35.7659C18.6726 35.7659 19.7888 36.882 19.7888 38.2495C19.7988 39.627 18.6827 40.7331 17.3052 40.7331Z" fill="#F79C04"/>
<path d="M22.9661 30.7685V5.63083C22.9661 2.52382 20.4322 0 17.3051 0C14.1779 0 11.6441 2.52382 11.6441 5.63083V30.7685C8.6376 33.1415 7.39077 37.1434 8.52699 40.904C9.11019 42.7843 10.2565 44.3931 11.8452 45.5695C13.4439 46.746 15.3242 47.3694 17.3051 47.3694C19.2859 47.3694 21.1763 46.746 22.765 45.5695C24.3537 44.3931 25.4999 42.7843 26.0831 40.8939C27.2193 37.1434 25.9625 33.1415 22.9661 30.7685ZM24.1425 40.3107C23.2074 43.3273 20.4623 45.3584 17.295 45.3584C14.1277 45.3584 11.3826 43.3373 10.4475 40.3208C9.51239 37.2238 10.6285 33.9258 13.2227 32.1058C13.4942 31.9148 13.6551 31.6131 13.6551 31.2813V5.64089C13.6551 3.68016 15.3343 2.02107 17.3051 2.02107C19.2859 2.02107 20.955 3.68015 20.9349 5.63083V31.2712C20.9349 31.6031 21.0958 31.9047 21.3673 32.0958C23.9615 33.9157 25.0776 37.2238 24.1425 40.3107Z" fill="#F79C04"/>
<path d="M43.1059 12.8403H41.9596C40.6323 12.8403 39.3754 12.227 38.7721 11.2918C38.7621 11.2818 38.752 11.2617 38.742 11.2516C38.1085 10.3668 38.1186 9.26072 38.7621 8.29544L38.7721 8.28538C39.3955 7.33015 40.582 6.7369 41.8791 6.7369H43.1059C43.6589 6.7369 44.1114 6.28443 44.1114 5.7314C44.1114 5.17837 43.6589 4.72589 43.1059 4.72589H41.8791C39.9084 4.72589 38.0783 5.66101 37.0929 7.17933C35.9869 8.83841 35.9869 10.8293 37.103 12.3979C38.0783 13.886 39.9787 14.8413 41.9696 14.8413H43.1059C43.6589 14.8413 44.1114 14.3989 44.1114 13.8458C44.1114 13.2928 43.6589 12.8403 43.1059 12.8403Z" fill="#F79C04"/>
<path d="M31.4332 0.0100708C29.573 0.0100708 28.0547 1.51833 28.0547 3.36846V4.50468C28.0547 6.35481 29.573 7.86307 31.4332 7.86307C33.2934 7.86307 34.8117 6.35481 34.8117 4.50468V3.36846C34.8117 1.51833 33.2934 0.0100708 31.4332 0.0100708ZM32.8007 4.50468C32.8007 5.25881 32.1974 5.85206 31.4332 5.85206C30.669 5.85206 30.0657 5.25881 30.0657 4.50468V3.36846C30.0657 2.61433 30.669 2.02108 31.4332 2.02108C32.1974 2.02108 32.8007 2.61433 32.8007 3.36846V4.50468Z" fill="#F79C04"/>
<path d="M6.86753 30.2757H1.07582C0.52279 30.2757 0.0703125 30.7282 0.0703125 31.2812C0.0703125 31.8343 0.52279 32.2867 1.07582 32.2867H6.86753C7.42056 32.2867 7.87304 31.8343 7.87304 31.2812C7.87304 30.7282 7.42056 30.2757 6.86753 30.2757Z" fill="#F79C04"/>
<path d="M6.86775 16.3194H3.35853C2.80551 16.3194 2.35303 16.7719 2.35303 17.3249C2.35303 17.8779 2.80551 18.3304 3.35853 18.3304H6.86775C7.42078 18.3304 7.87326 17.8779 7.87326 17.3249C7.87326 16.7719 7.42078 16.3194 6.86775 16.3194Z" fill="#F79C04"/>
<path d="M6.86753 11.6941H1.07582C0.52279 11.6941 0.0703125 12.1465 0.0703125 12.6996C0.0703125 13.2526 0.52279 13.7051 1.07582 13.7051H6.86753C7.42056 13.7051 7.87304 13.2526 7.87304 12.6996C7.87304 12.1465 7.42056 11.6941 6.86753 11.6941Z" fill="#F79C04"/>
<path d="M6.86775 6.98828H3.35853C2.80551 6.98828 2.35303 7.44076 2.35303 7.99379C2.35303 8.54682 2.80551 8.99929 3.35853 8.99929H6.86775C7.42078 8.99929 7.87326 8.54682 7.87326 7.99379C7.87326 7.44076 7.42078 6.98828 6.86775 6.98828Z" fill="#F79C04"/>
<path d="M6.86753 2.36295H1.07582C0.52279 2.36295 0.0703125 2.81542 0.0703125 3.36845C0.0703125 3.92148 0.52279 4.37396 1.07582 4.37396H6.86753C7.42056 4.37396 7.87304 3.92148 7.87304 3.36845C7.87304 2.81542 7.42056 2.36295 6.86753 2.36295Z" fill="#F79C04"/>
<path d="M6.86775 25.6504H3.35853C2.80551 25.6504 2.35303 26.1029 2.35303 26.6559C2.35303 27.2089 2.80551 27.6614 3.35853 27.6614H6.86775C7.42078 27.6614 7.87326 27.2089 7.87326 26.6559C7.87326 26.1029 7.42078 25.6504 6.86775 25.6504Z" fill="#F79C04"/>
<path d="M6.86753 20.9447H1.07582C0.52279 20.9447 0.0703125 21.3972 0.0703125 21.9502C0.0703125 22.5033 0.52279 22.9557 1.07582 22.9557H6.86753C7.42056 22.9557 7.87304 22.5033 7.87304 21.9502C7.87304 21.3972 7.42056 20.9447 6.86753 20.9447Z" fill="#F79C04"/>
</svg>
