<svg width="43" height="42" viewBox="0 0 43 42" fill="none" xmlns="http://www.w3.org/2000/svg">
<path d="M28.8475 12.7271C28.4037 12.7271 28.0435 13.0937 28.0435 13.5471C28.0435 14.0002 28.4037 14.3674 28.8475 14.3674C29.2922 14.3674 29.6516 14.0002 29.6516 13.5471C29.6516 13.0937 29.2922 12.7271 28.8475 12.7271Z" fill="#F79C04"/>
<path d="M14.2381 27.6315C13.7934 27.6315 13.4341 27.999 13.4341 28.4518C13.4341 28.9055 13.7934 29.2721 14.2381 29.2721C14.6819 29.2721 15.0422 28.9055 15.0422 28.4518C15.0422 27.999 14.6819 27.6315 14.2381 27.6315Z" fill="#F79C04"/>
<path d="M41.127 5.0466C40.8556 4.9822 40.5704 5.06583 40.3744 5.2677L37.0411 8.69539H35.443L33.6839 6.83591V5.18279L36.9695 1.78073C37.1639 1.5795 37.243 1.29015 37.1786 1.01489C37.1146 0.739962 36.9161 0.518221 36.6535 0.427858C35.8281 0.143953 34.9644 7.78245e-05 34.0859 7.78245e-05C31.4671 7.78245e-05 29.0879 1.24593 27.5583 3.41816C26.1267 5.45163 25.6854 7.94366 26.3177 10.3287L20.395 16.3711L10.5278 6.28124V4.30095C10.5278 4.01288 10.3796 3.74564 10.1374 3.5976L4.45224 0.117036C4.13564 -0.0768265 3.73079 -0.0258774 3.4701 0.240404L1.19615 2.56003C0.935462 2.82631 0.885524 3.23935 1.07523 3.56235L4.48616 9.36254C4.63127 9.6096 4.8929 9.76052 5.17526 9.76084L7.11565 9.76148L16.9838 19.8513L11.0838 25.8707C8.74606 25.226 6.30218 25.6768 4.30808 27.1383C2.18017 28.6979 0.959961 31.1245 0.959961 33.7963C0.959961 34.6923 1.10098 35.5738 1.37926 36.4156C1.46815 36.6851 1.68769 36.8885 1.95906 36.9526C2.23074 37.017 2.51561 36.9334 2.71191 36.7315L6.04495 33.3041H7.65179L9.48258 35.172V36.8113L6.12316 40.2118C5.92528 40.412 5.84331 40.7027 5.90644 40.9798C5.96926 41.2567 6.1687 41.4807 6.43284 41.5714C7.25793 41.8553 8.12197 41.9991 9.00015 41.9991C11.619 41.9991 13.9972 40.7539 15.5261 38.583C16.9587 36.5485 17.4006 34.0556 16.7687 31.6706L21.5072 26.8362L22.5927 28.0391L22.0945 28.547C21.7805 28.8674 21.7805 29.3868 22.0945 29.7073C22.4086 30.0274 22.9174 30.0274 23.2318 29.7073L23.6829 29.2471L33.8673 40.5335C33.8748 40.5418 33.8827 40.5498 33.8905 40.5578C35.775 42.4804 38.8282 42.4811 40.7136 40.5575C42.5937 38.6384 42.5937 35.5158 40.7136 33.5967C40.7055 33.5884 40.697 33.5804 40.6885 33.5723L29.6086 23.2018L30.0546 22.7468C30.3687 22.4267 30.3687 21.9072 30.0546 21.5868C29.7406 21.2664 29.2317 21.2664 28.9173 21.5868L28.4227 22.0918L27.2414 20.9857L32.0029 16.1279C32.6797 16.3124 33.3783 16.406 34.0859 16.406C38.5195 16.406 42.1261 12.7261 42.1261 8.20321C42.1261 7.30695 41.985 6.42576 41.7068 5.58365C41.6179 5.31417 41.3983 5.11069 41.127 5.0466ZM8.01833 8.36182C7.86757 8.20769 7.6631 8.12919 7.44952 8.12919L5.63099 8.12855L2.77724 3.26755L4.16328 1.85347L8.91974 4.76558V6.6209C8.91974 6.83815 9.00423 7.04644 9.15468 7.20025L19.2581 17.5314L18.1208 18.6914L8.01833 8.36182ZM28.4704 24.3631L39.588 34.7685C40.8298 36.049 40.8261 38.1222 39.5763 39.3979C38.3238 40.6757 36.2961 40.6796 35.0385 39.4091L24.8208 28.0859L28.4704 24.3631ZM27.2844 23.2527L23.7306 26.8778L22.6451 25.6749L26.1032 22.1466L27.2844 23.2527ZM34.0859 14.7654C33.3827 14.7654 32.691 14.6504 32.0308 14.4235C31.7416 14.3245 31.4218 14.4007 31.2057 14.6209C27.1748 18.7333 18.4892 27.5943 15.2909 30.8576C15.0748 31.0781 14.9997 31.4043 15.0974 31.6997C15.7658 33.7246 15.4461 35.8843 14.2199 37.6258C12.9972 39.3623 11.0944 40.3585 9.00015 40.3585C8.7649 40.3585 8.53091 40.3454 8.29912 40.3201L10.8529 37.7348C11.0049 37.581 11.0907 37.3714 11.0907 37.1526V34.832C11.0907 34.6144 11.0059 34.4058 10.8551 34.252L8.55321 31.9035C8.40245 31.7497 8.19798 31.6632 7.98472 31.6632H5.71014C5.49562 31.6632 5.29021 31.7507 5.13914 31.9058L2.60544 34.5112C2.58031 34.2747 2.56775 34.036 2.56775 33.796C2.56775 31.659 3.54391 29.7182 5.24624 28.4707C6.95296 27.2197 9.07019 26.8932 11.0552 27.5754C11.3445 27.6751 11.6642 27.5985 11.8803 27.378C11.9246 27.3332 27.7838 11.1528 27.7951 11.1413C28.0112 10.9208 28.086 10.5949 27.9886 10.2995C27.3199 8.27466 27.639 6.11557 28.8643 4.37529C30.0879 2.63726 31.991 1.6407 34.0856 1.6407C34.328 1.6407 34.5689 1.65448 34.8076 1.6814L32.3069 4.27083C32.1587 4.42432 32.0758 4.631 32.0758 4.84633V7.16692C32.0758 7.37969 32.1565 7.58381 32.3013 7.73665L34.5228 10.0851C34.6742 10.2453 34.883 10.3357 35.1013 10.3357H37.3759C37.5901 10.3357 37.7955 10.2485 37.9466 10.0931L40.4803 7.488C40.5054 7.72448 40.518 7.9632 40.518 8.20321C40.518 11.8216 37.6325 14.7654 34.0859 14.7654Z" fill="#F79C04"/>
<path d="M26.0054 15.287L15.9438 25.5522C15.6301 25.8723 15.6301 26.3917 15.9438 26.7121C16.2579 27.0326 16.767 27.0326 17.0811 26.7121L27.1427 16.447C27.4568 16.1269 27.4568 15.6075 27.1427 15.287C26.8286 14.9666 26.3195 14.9666 26.0054 15.287Z" fill="#F79C04"/>
<path d="M36.1659 37.0782C36.48 37.3977 36.9891 37.3977 37.3032 37.0763C37.6167 36.7555 37.6157 36.2361 37.3013 35.9163L30.0539 28.546C29.7395 28.2262 29.23 28.2271 28.9169 28.5479C28.6031 28.869 28.6041 29.3881 28.9185 29.7079L36.1659 37.0782Z" fill="#F79C04"/>
</svg>
